# Generated by AUTOMAPKI.com software.

# units Meters
mtllib build2.mtl
o 0
usemtl red
v -26.701324 -21.408604 13.518379
v -17.031171 -17.850755 0.000000
v -26.701324 -21.408604 0.000000
v -17.031171 -17.850755 13.518379
v -32.947355 -4.432031 13.518379
v -32.947355 -4.432031 0.000000
v -23.324885 -0.744583 13.518379
v -23.324885 -0.744583 0.000000
# 8 verticies

vn 0.345292 -0.938495 0.000000
vn -0.938495 -0.345292 0.000000
vn 0.938495 0.345292 0.000000
vn -0.357837 0.933784 0.000000
# 4 normals

f 3//1 2//1 1//1
f 1//1 2//1 4//1
f 6//2 3//2 5//2
f 5//2 3//2 1//2
f 8//4 6//4 7//4
f 7//4 6//4 5//4
f 2//3 8//3 4//3
f 4//3 8//3 7//3
# 8 triangles

