# 3ds Max Wavefront OBJ Exporter v0.99 - (c)2007 guruware
# File Created: 08.01.2025 10:47:56

mtllib mygia3.mtl

#
# object MvBlockRef__IFCBUILDINGELEMENTPROXY__1___Body
#

v  45.8948 -39.8269 0.0000
v  44.2511 -35.2268 0.0000
v  44.2511 -35.2268 119.2910
v  45.8948 -39.8269 119.2910
v  61.8934 -34.2410 0.0000
v  61.8934 -34.2410 119.2910
v  66.4958 -46.0699 119.2910
v  66.4958 -46.0699 0.0000
v  40.9638 -56.6939 119.2910
v  40.9638 -56.6939 0.0000
v  34.7177 -38.8411 0.0000
v  34.7177 -38.8411 119.2910
# 12 vertices

vn 0.1846 0.3863 -0.9037
vn 0.3425 0.7419 -0.5764
vn 0.3425 0.7419 0.5764
vn 0.1847 0.3864 0.9036
vn 0.3413 0.7402 -0.5793
vn 0.3413 0.7402 0.5793
vn 0.7504 -0.3197 0.5786
vn 0.7504 -0.3197 -0.5786
vn -0.3338 -0.7475 0.5744
vn -0.3338 -0.7475 -0.5744
vn -0.7393 0.3444 -0.5787
vn -0.7393 0.3444 0.5787
# 12 vertex normals

vt -52.9473 0.0000 0.0000
vt -48.0624 0.0000 0.0000
vt -48.0624 119.2910 0.0000
vt -52.9473 119.2910 0.0000
vt -47.1473 0.0000 -0.0000
vt -30.2016 0.0000 -0.0000
vt -30.2016 119.2910 -0.0000
vt -47.1473 119.2910 -0.0000
vt -54.3533 119.2910 0.0000
vt -67.0459 119.2910 0.0000
vt -67.0459 0.0000 0.0000
vt -54.3533 0.0000 0.0000
vt 43.6940 119.2910 0.0000
vt 16.0398 119.2910 0.0000
vt 16.0398 0.0000 0.0000
vt 43.6940 0.0000 0.0000
vt 48.1271 0.0000 -0.0000
vt 67.0410 0.0000 0.0000
vt 67.0410 119.2910 0.0000
vt 48.1271 119.2910 -0.0000
vt -28.8892 0.0000 0.0000
vt -18.6937 0.0000 -0.0000
vt -18.6937 119.2910 -0.0000
vt -28.8892 119.2910 0.0000
vt -34.7177 -38.8411 0.0000
vt -44.2511 -35.2268 0.0000
vt -45.8948 -39.8269 0.0000
vt -40.9638 -56.6939 0.0000
vt -61.8934 -34.2410 0.0000
vt -66.4958 -46.0699 0.0000
vt 66.4958 -46.0699 0.0000
vt 61.8934 -34.2410 0.0000
vt 45.8948 -39.8269 0.0000
vt 40.9638 -56.6939 0.0000
vt 44.2511 -35.2268 0.0000
vt 34.7177 -38.8411 0.0000
# 36 texture coords

o MvBlockRef__IFCBUILDINGELEMENTPROXY__1___Body
g MvBlockRef__IFCBUILDINGELEMENTPROXY__1___Body
usemtl wire_196088225
s 1
f 1/1/1 2/2/2 3/3/3 4/4/4 
s 2
f 5/5/5 1/6/1 4/7/4 6/8/6 
s 1
f 6/9/6 7/10/7 8/11/8 5/12/5 
s 2
f 7/13/7 9/14/9 10/15/10 8/16/8 
s 1
f 11/17/11 10/18/10 9/19/9 12/20/12 
s 2
f 2/21/2 11/22/11 12/23/12 3/24/3 
s 4
f 11/25/11 2/26/2 1/27/1 10/28/10 
f 1/27/1 5/29/5 8/30/8 10/28/10 
f 7/31/7 6/32/6 4/33/4 9/34/9 
f 4/33/4 3/35/3 12/36/12 9/34/9 
# 10 polygons

#
# object MvBlockRef__IFCBUILDINGELEMENTPROXY__2___Body
#

v  144.7748 -67.9103 -50.0000
v  144.7748 -67.9103 -40.0000
v  143.7995 -68.1313 -40.0000
v  143.7995 -68.1313 -50.0000
v  106.0531 98.4244 -90.0000
v  107.0283 98.6455 -90.0000
v  106.0531 98.4245 -100.0000
v  107.0283 98.6455 -100.0000
# 8 vertices

vn 0.7215 -0.4967 -0.4824
vn 0.6593 -0.3583 0.6611
vn -0.4404 -0.6076 0.6610
vn -0.4368 -0.7592 -0.4824
vn -0.7215 0.4967 0.4824
vn 0.4368 0.7592 0.4824
vn -0.6593 0.3584 -0.6609
vn 0.4405 0.6075 -0.6610
# 8 vertex normals

vt 126.1844 -50.0000 0.0000
vt 126.1844 -40.0000 0.0000
vt 125.1844 -40.0000 0.0000
vt 125.1844 -50.0000 0.0000
vt -125.1844 -94.9154 0.0000
vt -125.1844 83.0330 -0.0000
vt -126.1844 83.0330 -0.0000
vt -126.1844 -94.9154 0.0000
vt -125.1844 -100.0000 0.0000
vt -125.1844 -90.0000 0.0000
vt -126.1844 -90.0000 0.0000
vt -126.1844 -100.0000 0.0000
vt 125.1844 80.2232 0.0000
vt 125.1844 -97.7252 0.0000
vt 126.1844 -97.7252 0.0000
vt 126.1844 80.2232 0.0000
vt -72.5499 -100.0000 0.0000
vt 98.2295 -50.0000 0.0000
vt 98.2295 -40.0000 0.0000
vt -72.5499 -90.0000 0.0000
vt -98.2295 -40.0000 0.0000
vt -98.2295 -50.0000 0.0000
vt 72.5499 -100.0000 0.0000
vt 72.5499 -90.0000 0.0000
# 24 texture coords

o MvBlockRef__IFCBUILDINGELEMENTPROXY__2___Body
g MvBlockRef__IFCBUILDINGELEMENTPROXY__2___Body
usemtl wire_088199225
s 1
f 13/37/13 14/38/14 15/39/15 16/40/16 
s 2
f 17/41/17 15/42/15 14/43/14 18/44/18 
s 1
f 19/45/19 17/46/17 18/47/18 20/48/20 
s 2
f 16/49/16 19/50/19 20/51/20 13/52/13 
s 4
f 19/53/19 16/54/16 15/55/15 17/56/17 
f 14/57/14 13/58/13 20/59/20 18/60/18 
# 6 polygons

#
# object MvBlockRef__IFCBUILDINGELEMENTPROXY__3___Body
#

v  -43.0367 -156.2493 -100.0000
v  -43.0367 -156.2493 -90.0000
v  -44.0120 -156.4703 -90.0000
v  -44.0120 -156.4703 -100.0000
v  144.7748 -67.9103 -40.0000
v  143.7995 -68.1313 -40.0000
v  144.7748 -67.9103 -50.0000
v  143.7995 -68.1313 -50.0000
# 8 vertices

vn 0.2193 -0.3346 -0.9165
vn 0.2742 -0.9048 0.3258
vn -0.8294 -0.2896 0.4777
vn -0.7628 -0.2570 -0.5934
vn 0.7628 0.2570 0.5934
vn -0.2193 0.3346 0.9165
vn 0.8294 0.2896 -0.4777
vn -0.2741 0.9048 -0.3258
# 8 vertex normals

vt -76.5073 -100.0000 0.0000
vt -76.5073 -90.0000 0.0000
vt -77.5073 -90.0000 0.0000
vt -77.5073 -100.0000 0.0000
vt 126.1844 -95.2601 0.0000
vt 125.1844 -95.2601 0.0000
vt -77.5073 -162.2901 0.0000
vt -76.5073 -162.2901 0.0000
vt -126.1844 -40.0000 0.0000
vt -126.1844 -50.0000 0.0000
vt -125.1844 -50.0000 0.0000
vt -125.1844 -40.0000 0.0000
vt 77.5073 -169.7495 0.0000
vt -125.1844 -102.7195 0.0000
vt -126.1844 -102.7195 -0.0000
vt 76.5073 -169.7495 0.0000
vt 106.4245 -100.0000 -0.0000
vt 106.4245 -90.0000 -0.0000
vt -101.1254 -40.0000 0.0000
vt -101.1254 -50.0000 0.0000
vt 102.1020 -40.0000 0.0000
vt -105.4479 -90.0000 0.0000
vt -105.4479 -100.0000 0.0000
vt 102.1020 -50.0000 0.0000
# 24 texture coords

o MvBlockRef__IFCBUILDINGELEMENTPROXY__3___Body
g MvBlockRef__IFCBUILDINGELEMENTPROXY__3___Body
usemtl wire_255255255
s 1
f 21/61/21 22/62/22 23/63/23 24/64/24 
s 2
f 25/65/25 26/66/26 23/67/23 22/68/22 
s 4
f 25/69/25 27/70/27 28/71/28 26/72/26 
s 2
f 24/73/24 28/74/28 27/75/27 21/76/21 
s 4
f 24/77/24 23/78/23 26/79/26 28/80/28 
s 1
f 25/81/25 22/82/22 21/83/21 27/84/27 
# 6 polygons

