# Generated by AUTOMAPKI.com software.

# units Meters
mtllib ranh3.mtl
o 0
usemtl white
v -99.381026 33.110648 -90.000000
v -100.373430 33.233669 -100.000000
v -100.373430 33.233669 -90.000000
v -99.381026 33.110648 -100.000000
v 133.158734 56.598404 -90.000000
v 134.151138 56.475382 -90.000000
v 134.151138 56.475382 -100.000000
v 133.158734 56.598404 -100.000000
v -93.502604 -132.375474 -90.000000
v -94.495008 -132.252452 -100.000000
v -94.495008 -132.252452 -90.000000
v -93.502604 -132.375474 -100.000000
v 112.149134 -112.883804 -40.000000
v 113.141538 -113.006825 -40.000000
v 113.141538 -113.006825 -50.000000
v 112.149134 -112.883804 -50.000000
# 16 verticies

vn -0.123022 -0.992404 0.000000
vn 0.000000 0.000000 1.000000
vn -0.099552 0.995032 0.000000
vn 0.099552 -0.995032 0.000000
vn 0.000000 0.000000 -1.000000
vn 0.123022 0.992404 0.000000
vn -0.999370 -0.035500 0.000000
vn 0.999370 0.035500 0.000000
vn -0.091766 -0.740269 0.666019
vn -0.093320 0.995636 0.000000
vn 0.093320 -0.995636 0.000000
vn 0.091766 0.740269 -0.666019
vn 0.034567 0.278846 0.959714
vn -0.992404 0.123022 0.000000
vn 0.992404 -0.123022 0.000000
vn -0.034567 -0.278846 -0.959714
# 16 normals

f 3//1 2//1 1//1
f 1//1 2//1 4//1
f 3//2 1//2 5//2
f 5//2 1//2 6//2
f 8//6 5//6 7//6
f 7//6 5//6 6//6
f 2//5 8//5 4//5
f 4//5 8//5 7//5
f 7//4 6//4 4//4
f 4//4 6//4 1//4
f 2//3 3//3 8//3
f 8//3 3//3 5//3
f 11//1 10//1 9//1
f 9//1 10//1 12//1
f 3//2 11//2 1//2
f 1//2 11//2 9//2
f 2//6 3//6 4//6
f 4//6 3//6 1//6
f 2//5 4//5 10//5
f 10//5 4//5 12//5
f 4//8 1//8 12//8
f 12//8 1//8 9//8
f 10//7 11//7 2//7
f 2//7 11//7 3//7
f 11//1 10//1 9//1
f 9//1 10//1 12//1
f 11//9 9//9 13//9
f 13//9 9//9 14//9
f 16//6 13//6 15//6
f 15//6 13//6 14//6
f 10//12 16//12 12//12
f 12//12 16//12 15//12
f 10//10 11//10 16//10
f 16//10 11//10 13//10
f 12//11 15//11 9//11
f 9//11 15//11 14//11
f 13//1 16//1 14//1
f 14//1 16//1 15//1
f 5//13 13//13 6//13
f 6//13 13//13 14//13
f 8//6 5//6 7//6
f 7//6 5//6 6//6
f 16//16 8//16 15//16
f 15//16 8//16 7//16
f 8//14 16//14 5//14
f 5//14 16//14 13//14
f 7//15 6//15 15//15
f 15//15 6//15 14//15
# 48 triangles

