# Generated by AUTOMAPKI.com software.

# units Meters
mtllib ranh2.mtl
o 0
usemtl white
v 299.585707 -209.311344 -90.000000
v 298.598522 -209.470923 -100.000000
v 298.598522 -209.470923 -90.000000
v 299.585707 -209.311344 -100.000000
v 232.976789 202.743026 -70.000000
v 231.989604 202.583446 -70.000000
v 232.976789 202.743026 -80.000000
v 231.989604 202.583446 -80.000000
v -155.926131 -246.692982 -90.000000
v -156.913316 -246.852562 -90.000000
v -155.926131 -246.692982 -100.000000
v -156.913316 -246.852562 -100.000000
v -235.688804 118.241344 -90.000000
v -236.675989 118.081764 -100.000000
v -236.675989 118.081764 -90.000000
v -235.688804 118.241344 -100.000000
# 16 verticies

vn 0.159579 -0.987185 0.000000
vn 0.007638 -0.047247 0.998854
vn -0.987185 -0.159579 0.000000
vn 0.987185 0.159579 0.000000
vn -0.007638 0.047247 -0.998854
vn -0.159579 0.987185 0.000000
vn 0.000000 0.000000 1.000000
vn 0.081790 -0.996650 0.000000
vn -0.081790 0.996650 0.000000
vn 0.000000 0.000000 -1.000000
vn 0.146522 -0.906411 0.396170
vn 0.165407 -0.965259 0.202274
vn -0.165407 0.965259 -0.202274
vn -0.177442 0.984131 0.000000
vn 0.177442 -0.984131 0.000000
vn -0.146522 0.906411 -0.396170
vn -0.976937 -0.213526 0.000000
vn 0.976937 0.213526 0.000000
# 18 normals

f 3//1 2//1 1//1
f 1//1 2//1 4//1
f 6//2 3//2 5//2
f 5//2 3//2 1//2
f 8//6 6//6 7//6
f 7//6 6//6 5//6
f 2//5 8//5 4//5
f 4//5 8//5 7//5
f 2//3 3//3 8//3
f 8//3 3//3 6//3
f 4//4 7//4 1//4
f 1//4 7//4 5//4
f 3//1 2//1 1//1
f 1//1 2//1 4//1
f 10//7 3//7 9//7
f 9//7 3//7 1//7
f 12//6 10//6 11//6
f 11//6 10//6 9//6
f 12//10 11//10 2//10
f 2//10 11//10 4//10
f 11//9 9//9 4//9
f 4//9 9//9 1//9
f 2//8 3//8 12//8
f 12//8 3//8 10//8
f 15//1 14//1 13//1
f 13//1 14//1 16//1
f 15//11 13//12 6//11
f 6//11 13//12 5//12
f 8//6 6//6 7//6
f 7//6 6//6 5//6
f 14//13 8//13 16//16
f 16//16 8//13 7//16
f 16//15 7//15 13//12
f 13//12 7//15 5//12
f 14//13 15//14 8//13
f 8//13 15//14 6//14
f 10//1 12//1 9//1
f 9//1 12//1 11//1
f 15//7 10//7 13//7
f 13//7 10//7 9//7
f 14//6 15//6 16//6
f 16//6 15//6 13//6
f 14//10 16//10 12//10
f 12//10 16//10 11//10
f 16//18 13//18 11//18
f 11//18 13//18 9//18
f 12//17 10//17 14//17
f 14//17 10//17 15//17
# 48 triangles

