# Generated by AUTOMAPKI.com software.

# units Meters
mtllib tuyen1.mtl
o 0._Tuyen_03
usemtl 0,0,0
v 225.986642 -190.465170 0.000000
v 228.481599 -190.465170 0.000000
v 228.114497 -189.581348 0.000000
v 229.654207 -199.295053 0.000000
v 231.782062 -198.411231 0.000000
v 229.287104 -198.411231 0.000000
v 272.161908 -171.285889 0.000000
v 274.656865 -171.285889 0.000000
v 274.289763 -170.402067 0.000000
v 275.829473 -180.115772 0.000000
v 277.957328 -179.231950 0.000000
v 275.462370 -179.231950 0.000000
v 318.337174 -152.106609 0.000000
v 320.832870 -152.106609 0.000000
v 320.465659 -151.222525 0.000000
v 322.004739 -160.936491 0.000000
v 324.133224 -160.052408 0.000000
v 321.637528 -160.052408 0.000000
v 364.512440 -132.927328 0.000000
v 367.007398 -132.927328 0.000000
v 366.640295 -132.043506 0.000000
v 368.180005 -141.757211 0.000000
v 370.307860 -140.873389 0.000000
v 367.812903 -140.873389 0.000000
v 373.536392 -129.177308 0.000000
v 376.031349 -129.177308 0.000000
v 375.664246 -128.293486 0.000000
v 377.205265 -138.010341 0.000000
v 379.333120 -137.126519 0.000000
v 376.838162 -137.126519 0.000000
v 381.276379 -59.609410 0.000000
v 390.986537 -59.609410 0.000000
v 390.691042 -57.941481 0.000000
v 381.678322 -61.878186 0.000000
v 391.092985 -60.210258 0.000000
v 381.382827 -60.210258 0.000000
v 372.554061 -10.376076 0.000000
v 382.264219 -10.376076 0.000000
v 381.968724 -8.708147 0.000000
v 372.956004 -12.644853 0.000000
v 382.370667 -10.976924 0.000000
v 372.660509 -10.976924 0.000000
v 363.831624 38.857930 0.000000
v 373.541781 38.857930 0.000000
v 373.246286 40.525858 0.000000
v 364.233686 36.588481 0.000000
v 373.648348 38.256410 0.000000
v 363.938191 38.256410 0.000000
v 363.394737 41.323949 0.000000
v 373.104894 41.323949 0.000000
v 372.809399 42.991878 0.000000
v 363.796799 39.054501 0.000000
v 373.211461 40.722429 0.000000
v 363.501304 40.722429 0.000000
# 54 verticies

vn 0.000000 0.000000 -1.000000
# 1 normals

f 3//1 2//1 1//1
f 6//1 5//1 4//1
f 1//1 5//1 6//1
f 1//1 2//1 5//1
f 9//1 8//1 7//1
f 12//1 11//1 10//1
f 7//1 11//1 12//1
f 7//1 8//1 11//1
f 15//1 14//1 13//1
f 18//1 17//1 16//1
f 13//1 17//1 18//1
f 13//1 14//1 17//1
f 21//1 20//1 19//1
f 24//1 23//1 22//1
f 19//1 23//1 24//1
f 19//1 20//1 23//1
f 27//1 26//1 25//1
f 30//1 29//1 28//1
f 25//1 29//1 30//1
f 25//1 26//1 29//1
f 33//1 32//1 31//1
f 36//1 35//1 34//1
f 31//1 35//1 36//1
f 31//1 32//1 35//1
f 39//1 38//1 37//1
f 42//1 41//1 40//1
f 37//1 41//1 42//1
f 37//1 38//1 41//1
f 45//1 44//1 43//1
f 48//1 47//1 46//1
f 43//1 47//1 48//1
f 43//1 44//1 47//1
f 51//1 50//1 49//1
f 54//1 53//1 52//1
f 49//1 53//1 54//1
f 49//1 50//1 53//1
# 36 triangles

